<svg width="400" height="400" viewBox="0 0 400 400" fill="none" xmlns="http://www.w3.org/2000/svg">
<g clip-path="url(#clip0_604_23)">
<path d="M65.6001 281.9C68.0001 279.5 71.3001 278.1 74.8001 278.1H392.2C398 278.1 400.9 285.1 396.8 289.2L334.1 351.9C331.7 354.3 328.4 355.7 324.9 355.7H7.50014C1.70014 355.7 -1.19986 348.7 2.90014 344.6L65.6001 281.9Z" fill="url(#paint0_linear_604_23)"/>
<path d="M65.6001 47.8C68.1001 45.4 71.4001 44 74.8001 44H392.2C398 44 400.9 51 396.8 55.1L334.1 117.8C331.7 120.2 328.4 121.6 324.9 121.6H7.50014C1.70014 121.6 -1.19986 114.6 2.90014 110.5L65.6001 47.8Z" fill="url(#paint1_linear_604_23)"/>
<path d="M334.1 164.1C331.7 161.7 328.4 160.3 324.9 160.3H7.50014C1.70014 160.3 -1.19986 167.3 2.90014 171.4L65.6001 234.1C68.0001 236.5 71.3001 237.9 74.8001 237.9H392.2C398 237.9 400.9 230.9 396.8 226.8L334.1 164.1Z" fill="url(#paint2_linear_604_23)"/>
</g>
<defs>
<linearGradient id="paint0_linear_604_23" x1="361.879" y1="6.54477" x2="142.213" y2="427.294" gradientUnits="userSpaceOnUse">
<stop stop-color="#00FFA3"/>
<stop offset="1" stop-color="#DC1FFF"/>
</linearGradient>
<linearGradient id="paint1_linear_604_23" x1="265.829" y1="-43.6014" x2="46.1631" y2="377.147" gradientUnits="userSpaceOnUse">
<stop stop-color="#00FFA3"/>
<stop offset="1" stop-color="#DC1FFF"/>
</linearGradient>
<linearGradient id="paint2_linear_604_23" x1="313.549" y1="-18.6882" x2="93.8823" y2="402.061" gradientUnits="userSpaceOnUse">
<stop stop-color="#00FFA3"/>
<stop offset="1" stop-color="#DC1FFF"/>
</linearGradient>
<clipPath id="clip0_604_23">
<rect width="397.7" height="311.7" fill="white" transform="translate(1 44)"/>
</clipPath>
</defs>
</svg>
